<?xml version="1.0" encoding="utf-8"?>
<!-- Generator: Adobe Illustrator 27.1.1, SVG Export Plug-In . SVG Version: 6.00 Build 0)  -->
<svg version="1.1" xmlns="http://www.w3.org/2000/svg" xmlns:xlink="http://www.w3.org/1999/xlink" x="0px" y="0px"
	 viewBox="0 0 395.87 280.35" style="enable-background:new 0 0 395.87 280.35;" xml:space="preserve">
<style type="text/css">
	.st0{fill:#1B75BB;}
	.st1{fill:#E00122;}
	.st2{fill:#FFFFFF;}
	.st3{fill:#4F0000;}
	.st4{fill:#E7E7E7;}
	.st5{fill:#333333;}
	.st6{fill:#181818;}
	.st7{display:none;}
	.st8{display:inline;fill:#FFFFFF;}
</style>
<g id="Layer_1">
	<g>
		<g>
			<path class="st5" d="M186.76,270.87h-46.94c-1.38,0-2.5-1.12-2.5-2.5V127.95c0-1.38,1.12-2.5,2.5-2.5h46.94
				c1.38,0,2.5,1.12,2.5,2.5v140.42C189.26,269.75,188.14,270.87,186.76,270.87z M142.32,265.87h41.94V130.45h-41.94V265.87z"/>
		</g>
	</g>
	<path class="st5" d="M123.37,125.45H5.81c-1.38,0-2.5,1.12-2.5,2.5v140.42c0,1.38,1.12,2.5,2.5,2.5h46.94c1.38,0,2.5-1.12,2.5-2.5
		v-43.44h63.1c1.38,0,2.5-1.12,2.5-2.5v-36.51c0-1.38-1.12-2.5-2.5-2.5h-63.1v-12.85h68.11c1.38,0,2.5-1.12,2.5-2.5v-40.12
		C125.87,126.57,124.75,125.45,123.37,125.45z M120.86,165.57H52.75c-1.38,0-2.5,1.12-2.5,2.5v17.85c0,1.38,1.12,2.5,2.5,2.5h63.1
		v31.51h-63.1c-1.38,0-2.5,1.12-2.5,2.5v43.44H8.31V130.45h68.03h5.36h7.23h7.18h24.74V165.57z"/>
	<path class="st5" d="M328.98,227.35h-72.12v-10.24h66.1c1.38,0,2.5-1.12,2.5-2.5v-33.9c0-1.38-1.12-2.5-2.5-2.5h-66.1v-9.24h72.12
		c1.38,0,2.5-1.12,2.5-2.5v-38.52c0-1.38-1.12-2.5-2.5-2.5h-93.56h-27.2c-1.38,0-2.5,1.12-2.5,2.5v140.42c0,1.38,1.12,2.5,2.5,2.5
		h120.76c1.38,0,2.5-1.12,2.5-2.5v-38.52C331.48,228.47,330.36,227.35,328.98,227.35z M326.48,265.87H210.72V130.45h115.76v33.51
		h-72.12c-1.38,0-2.5,1.12-2.5,2.5v14.24c0,1.38,1.12,2.5,2.5,2.5h66.1v28.9h-66.1c-1.38,0-2.5,1.12-2.5,2.5v15.25
		c0,1.38,1.12,2.5,2.5,2.5h72.12V265.87z"/>
	<g>
		<path class="st3" d="M389.32,103.14V58.77h1.22V55.5h-17.23v-3.26h3.38l-9.77-6.84h-9.86v-2.18H344.8v2.18h-9.86l-9.77,6.84h3.38
			v3.26h-18.22v3.27h0.91l0.09,44.37h-2.1V52.01h3.76v-7.63l-14.78-4.76l-14.78,4.76v7.63h3.75v51.14h-2.01V54.07h-3.75V43.36
			l5.01-1.37c0.58,0,1.1-0.24,1.47-0.62c0.5-0.49,0.75-1.24,0.55-2.01c-0.24-0.93-1.16-1.54-2.12-1.54h-0.52v-1.69h2.71v-4.18
			h-26.19v-5.73h0.04l2-1.56v-3.72l0.84-1.76V17.3h-7.5v-1.56h2.66v-4.85h-1.17V9.88h-1.38v1.01h-0.42v2h-0.48v4.42h-8.47v1.88
			l0.84,1.76v3.72l2,1.56h0.04v5.73h-26.19v4.18h2.71v1.69h-0.62c-0.58,0-1.1,0.24-1.47,0.61c-0.51,0.51-0.76,1.27-0.53,2.07
			c0.26,0.9,1.14,1.49,2.08,1.49h0.55v61.16h-2.03V81.09l-2.02-3.24V16.98h-1.1V5.47h1.37V3.57h-1.01V2.05h-13.3v1.52h-1.01v1.91
			h1.37v11.5h-1.1v60.88l-2.02,3.24v22.05h-2.06V30.1h-10.87v4.39h-16.13v4.39h-23.34l-0.91,5.2c0,0,3.99,0.55,5.98,2.04
			c0.83,0.63,0.81,1.64,0.81,2.49v4.83c0,1.12-0.87,2.39-1.79,3.62c-1.17,1.55-3.17,2.81-4.54,3.68v42.39h-2.01v-1.67l-0.04,0.98
			V59.04l1.24-0.56c0.01-0.01,0.02-0.01,0.03-0.01c0.67-0.29,1.91-1.29,3.01-2.37c0.85-0.84,1.62-1.73,1.97-2.36
			c0.09-0.16,0.13-0.34,0.13-0.51l0-4.38c0-0.4-0.22-0.77-0.59-0.95c-0.43-0.21-0.96-0.42-1.51-0.63c-1.72-0.62-3.82-1.17-4.76-1.26
			h-11.25c-1.26,0.12-4.53,1.04-6.27,1.87c-0.37,0.18-0.59,0.55-0.59,0.96l0,4.38c0,0.14,0.02,0.28,0.08,0.41
			c0.71,1.43,3.83,4.35,5.06,4.84l0.58,0.56v44.11h-2.01V76.03h-17.27l5.56-3.83l0.13-2.58l-9.3,6.41h-5.64v2.9h-8.02V77.7h1.7V77.2
			h-1.7v-0.98h1.7v-0.49h-1.7v-0.99h1.7v-0.49h-1.7v-0.98h1.7v-0.49h-1.7v-0.42c0-0.19,0-0.38,0.02-0.57h1.67V71.3h-1.62
			c0.51-3.25,3.33-5.74,6.73-5.74v-2.29H33.07v2.29c3.4,0,6.22,2.49,6.73,5.74h-1.63v0.49h1.69c0.01,0.19,0.02,0.38,0.02,0.57v0.42
			h-1.71v0.49h1.71v0.98h-1.71v0.49h1.71v0.99h-1.71v0.49h1.71v0.98h-1.71v0.49h1.71v1.22h-7.53v-2.9H26.7l-9.3-6.41l0.15,2.58
			l5.56,3.83H6.03v27.12h0c-2.1,0-3.79,1.7-3.79,3.79v6.28h3.79v0.06h387.25v-6.34c0-2.1-1.7-3.79-3.79-3.79H389.32z M14.23,96.72
			h-4.19V84.91c0-1.15,0.94-2.09,2.1-2.09c1.15,0,2.09,0.94,2.09,2.09V96.72z M21.27,96.72h-4.18V84.91c0-1.15,0.94-2.09,2.09-2.09
			c1.16,0,2.09,0.94,2.09,2.09V96.72z M28.34,96.72h-4.19V84.91c0-1.15,0.93-2.09,2.1-2.09c1.15,0,2.09,0.94,2.09,2.09V96.72z
			 M118.89,96.72h-4.18V84.91c0-1.15,0.93-2.09,2.09-2.09c1.16,0,2.09,0.94,2.09,2.09V96.72z M125.94,96.72h-4.18V84.91
			c0-1.15,0.93-2.09,2.09-2.09c1.15,0,2.09,0.94,2.09,2.09V96.72z M133,96.72h-4.19V84.91c0-1.15,0.94-2.09,2.1-2.09
			c1.16,0,2.09,0.94,2.09,2.09V96.72z M211.62,16.98h-0.98V5.47h0.98V16.98z M213.13,16.98h-0.98V5.47h0.98V16.98z M214.63,16.98
			h-0.98V5.47h0.98V16.98z M216.14,16.98h-0.98V5.47h0.98V16.98z M217.66,16.98h-0.98V5.47h0.98V16.98z M219.16,16.98h-0.98V5.47
			h0.98V16.98z M220.67,16.98h-0.98V5.47h0.98V16.98z M222.17,16.98h-0.98V5.47h0.98V16.98z"/>
	</g>
	<g>
		<path class="st3" d="M352.73,126.36c8.81,10.38,16.92,21.26,25.35,21.26c4.09,0,6.86-1.82,6.86-6.16c0-4.21-3.02-6.54-7.86-6.6
			v-8.55c10.5,0.31,15.35,7.04,15.35,15.28c0,9.87-5.85,14.84-13.84,14.84c-10.63,0-18.93-10.25-25.1-17.55v18.55h-7.3v-31.07
			H352.73z"/>
		<path class="st3" d="M392.29,179.94c0,12.96-9.94,16.98-23.21,16.98c-13.4,0-23.4-4.03-23.4-16.98c0-12.96,10-16.98,23.4-16.98
			C382.36,162.96,392.29,166.99,392.29,179.94z M384.12,179.94c0-7.42-7.17-8.3-15.03-8.3c-8.18,0-15.22,0.88-15.22,8.3
			s7.04,8.3,15.22,8.3C376.95,188.25,384.12,187.37,384.12,179.94z"/>
		<path class="st3" d="M352.73,203.09c8.81,10.38,16.92,21.26,25.35,21.26c4.09,0,6.86-1.82,6.86-6.16c0-4.21-3.02-6.54-7.86-6.6
			v-8.55c10.5,0.31,15.35,7.04,15.35,15.28c0,9.87-5.85,14.84-13.84,14.84c-10.63,0-18.93-10.25-25.1-17.55v18.55h-7.3v-31.07
			H352.73z"/>
		<path class="st3" d="M392.48,255.1c0,9.43-5.35,14.47-12.14,14.47c-5.72,0-9.25-3.59-10.38-6.92h-0.25
			c-1.45,4.65-5.22,7.74-11.45,7.74c-7.48,0-13.02-5.28-13.02-14.91c0-9.06,4.53-15.91,14.15-16.29v8.55
			c-3.96,0.19-6.79,2.83-6.79,7.55c0,4.4,2.77,6.67,6.42,6.67c5.16,0,7.04-3.27,7.04-9.81v-1.82h7.23v1.82
			c0,5.16,1.45,8.93,5.98,8.93c3.58,0,5.72-2.2,5.72-6.23c0-4.28-2.77-6.1-5.66-6.42v-8.62
			C387.83,240.26,392.48,246.29,392.48,255.1z"/>
	</g>
</g>
<g id="Layer_2" class="st7">
</g>
</svg>
